<svg width="134" height="32" viewBox="0 0 134 32" fill="none" xmlns="http://www.w3.org/2000/svg">
<g clip-path="url(#clip0_26_110)">
<path d="M5.01525 11.8371H1.22563C0.636246 11.8371 0.25507 12.4738 0.523122 13.0097L10.0082 31.3431C10.1517 31.6287 10.5123 31.9019 10.8263 31.9019L17.2645 31.8978L8.7598 14.1781C8.04007 12.7413 6.59405 11.8371 5.01443 11.8371H5.01525Z" fill="url(#paint0_linear_26_110)"/>
<path d="M7.61582 6.82117H3.8262C3.23682 6.82117 2.85564 7.45783 3.12369 7.99366L13.0752 27.585C13.0752 27.585 17.9313 22.2829 17.3567 21.135L11.3612 9.16207C10.6414 7.72534 9.19545 6.82117 7.61582 6.82117Z" fill="url(#paint1_linear_26_110)"/>
<path d="M5.3315 1.31082L15.2174 20.1974C15.5224 20.8053 15.5281 21.5249 15.2338 22.1387L10.1113 30.8936C9.9753 31.1561 10.022 31.4753 10.2261 31.6886C10.3564 31.8248 10.536 31.902 10.7245 31.902H16.8037C25.3903 31.902 32.3507 24.7914 32.3507 16.0202C32.3507 7.24889 25.3903 0.138306 16.8037 0.138306H6.03401C5.44463 0.138306 5.06345 0.775021 5.3315 1.31082Z" fill="url(#paint2_linear_26_110)"/>
<path d="M43.1291 24.0287H38.1897V10.0189H43.1291C45.2559 10.0189 47.0879 10.7063 48.6251 12.0792C50.1623 13.4531 50.931 15.1017 50.931 17.0243C50.931 18.9468 50.1623 20.5954 48.6251 21.9692C47.0879 23.343 45.2567 24.0295 43.1291 24.0295V24.0287ZM40.7827 21.7215H42.738C44.3842 21.7215 45.7297 21.2616 46.772 20.3409C47.8143 19.4202 48.3363 18.2806 48.3363 16.9211C48.3363 15.5617 47.8422 14.5412 46.854 13.6551C45.8657 12.7692 44.4941 12.3261 42.7372 12.3261H40.7819V21.7215H40.7827Z" fill="white"/>
<path d="M52.2673 14.1393H54.7371V16.6942L55.9314 14.2636C56.6586 14.0438 57.2414 13.9338 57.6806 13.9338C58.1198 13.9338 58.6891 14.0438 59.3479 14.2636V16.4888C58.8674 16.1591 58.3192 15.9942 57.7018 15.9942C57.0024 15.9807 56.3976 16.1726 55.89 16.5708C55.3823 16.969 54.9981 17.4982 54.7371 18.1577V24.0292H52.2673V14.1401V14.1393Z" fill="white"/>
<path d="M60.6251 11.503C60.6251 11.1319 60.7661 10.8165 61.0474 10.5553C61.3287 10.2949 61.6547 10.1639 62.0246 10.1639C62.3946 10.1639 62.7248 10.2949 63.0128 10.5553C63.3009 10.8165 63.4453 11.1319 63.4453 11.503C63.4453 11.8742 63.3009 12.1727 63.0128 12.4406C62.7248 12.7087 62.3954 12.8422 62.0246 12.8422C61.6539 12.8422 61.3287 12.7087 61.0474 12.4406C60.7661 12.1727 60.6251 11.8607 60.6251 11.503ZM60.7898 14.14H63.2595V24.0291H60.7898V14.14Z" fill="white"/>
<path d="M64.3709 14.1393H66.8616L70.0113 21.968L73.1395 14.1393H75.6304L71.6369 24.0284H68.3645L64.3717 14.1393H64.3709Z" fill="white"/>
<path d="M75.4032 19.0843C75.4032 17.6699 75.9277 16.4575 76.9772 15.4481C78.0275 14.4386 79.2729 13.9338 80.7136 13.9338C82.3189 13.9338 83.6017 14.5079 84.5622 15.6543C85.5226 16.8016 85.9001 18.2608 85.6947 20.0328H77.8731C77.9962 21.4617 79.1559 22.2031 81.3509 22.2581C82.1611 22.2715 82.9936 22.1515 83.852 21.8979C84.7091 21.6443 85.358 21.345 85.7974 21.0018V23.0621C85.207 23.4053 84.4663 23.6868 83.5738 23.9067C82.6814 24.1265 81.8652 24.2363 81.1244 24.2363C79.4226 24.2363 78.0445 23.7663 76.9874 22.8253C75.9311 21.8843 75.4026 20.6382 75.4026 19.086L75.4032 19.0843ZM77.8941 18.1771H83.3283C83.2589 17.4906 82.9814 16.9411 82.4944 16.5285C82.0073 16.1168 81.4067 15.9105 80.6939 15.9105C79.981 15.9105 79.3416 16.1134 78.8206 16.5183C78.2995 16.9233 77.9894 17.4762 77.8941 18.1771Z" fill="white"/>
<path d="M98.3488 12.0792C96.8115 10.7063 94.9804 10.0189 92.8527 10.0189H87.9131V24.0287H92.8527C94.979 24.0287 96.8115 23.3422 98.3488 21.9683C99.886 20.5954 100.655 18.9468 100.655 17.0234C100.655 15.1 99.886 13.4522 98.3488 12.0784V12.0792ZM96.4966 20.3409C95.4531 21.2616 94.1084 21.7215 92.4623 21.7215H90.5067V12.3261H92.4623C94.2186 12.3261 95.5905 12.7692 96.5789 13.6551C97.5672 14.5412 98.0617 15.6301 98.0617 16.9211C98.0617 18.2806 97.5386 19.4211 96.4966 20.3409Z" fill="url(#paint3_linear_26_110)"/>
<path d="M110.103 16.6944L108.991 14.366C108.359 14.0778 107.708 13.9332 107.036 13.9332C105.526 13.9332 104.24 14.4379 103.176 15.4474C102.113 16.4568 101.581 17.6692 101.581 19.0836C101.581 20.498 102.112 21.7104 103.176 22.7198C104.24 23.7293 105.526 24.234 107.036 24.234C107.708 24.234 108.36 24.0895 108.991 23.8011L110.103 21.4728V24.0277H112.572V14.1386H110.103V16.6935V16.6944ZM110.103 20.0728C109.883 20.6637 109.505 21.1406 108.97 21.505C108.435 21.8693 107.83 22.0511 107.158 22.0511C106.308 22.0511 105.576 21.7594 104.966 21.1752C104.356 20.5919 104.05 19.8944 104.05 19.0845C104.05 18.2745 104.355 17.577 104.966 16.9928C105.577 16.4095 106.308 16.117 107.158 16.117C107.83 16.117 108.434 16.2996 108.97 16.6631C109.505 17.0275 109.883 17.4976 110.103 18.0742V20.0728Z" fill="url(#paint4_linear_26_110)"/>
<path d="M130.994 14.1395V16.6944L129.882 14.366C129.251 14.0778 128.599 13.9332 127.927 13.9332C126.418 13.9332 125.132 14.4379 124.068 15.4474C123.005 16.4568 122.473 17.6692 122.473 19.0836C122.473 20.498 123.004 21.7104 124.068 22.7198C125.132 23.7293 126.418 24.234 127.927 24.234C128.599 24.234 129.252 24.0895 129.882 23.8011L130.994 21.4728V24.0277H133.463V14.1386H130.994V14.1395ZM130.994 20.0728C130.774 20.6637 130.397 21.1406 129.861 21.505C129.326 21.8693 128.722 22.0511 128.05 22.0511C127.199 22.0511 126.467 21.7594 125.858 21.1752C125.247 20.5919 124.941 19.8944 124.941 19.0845C124.941 18.2745 125.246 17.577 125.858 16.9928C126.468 16.4095 127.199 16.117 128.05 16.117C128.722 16.117 129.326 16.2996 129.861 16.6631C130.397 17.0275 130.774 17.4976 130.994 18.0742V20.0728Z" fill="url(#paint5_linear_26_110)"/>
<path d="M118.561 21.5255C118.151 21.0656 117.944 20.3757 117.944 19.455V16.3616H120.42V14.1389H117.944V11.0488H115.474V14.1389H113.601V16.3227H115.474V19.0839C115.474 19.9217 115.57 20.6598 115.762 21.299C115.954 21.9373 116.198 22.4395 116.492 22.803C116.787 23.1674 117.141 23.459 117.553 23.6788C117.964 23.8987 118.355 24.0458 118.725 24.1218C119.096 24.1971 119.48 24.2351 119.878 24.2351C120.673 24.2351 121.346 24.1658 121.896 24.0288V21.8451C121.127 22.092 120.537 22.2162 120.125 22.2162C119.494 22.2162 118.973 21.9863 118.561 21.5264L118.561 21.5255Z" fill="url(#paint6_linear_26_110)"/>
</g>
<defs>
<linearGradient id="paint0_linear_26_110" x1="-2.31232" y1="0.384425" x2="14.8571" y2="33.1644" gradientUnits="userSpaceOnUse">
<stop offset="0.42" stop-color="#54DA89"/>
<stop offset="1" stop-color="#0A96EC"/>
</linearGradient>
<linearGradient id="paint1_linear_26_110" x1="6.25752" y1="18.9795" x2="13.5173" y2="12.6938" gradientUnits="userSpaceOnUse">
<stop offset="0.3" stop-color="#0883EB"/>
<stop offset="1" stop-color="#106B99"/>
</linearGradient>
<linearGradient id="paint2_linear_26_110" x1="23.7148" y1="-1.1819" x2="8.66097" y2="33.265" gradientUnits="userSpaceOnUse">
<stop stop-color="#78EF56"/>
<stop offset="0.52" stop-color="#0CB1EE"/>
<stop offset="1" stop-color="#0668E9"/>
</linearGradient>
<linearGradient id="paint3_linear_26_110" x1="94.59" y1="4.33083" x2="93.5684" y2="35.1013" gradientUnits="userSpaceOnUse">
<stop stop-color="#78EF56"/>
<stop offset="0.52" stop-color="#0CB1EE"/>
<stop offset="1" stop-color="#0668E9"/>
</linearGradient>
<linearGradient id="paint4_linear_26_110" x1="107.631" y1="4.76357" x2="106.61" y2="35.5341" gradientUnits="userSpaceOnUse">
<stop stop-color="#78EF56"/>
<stop offset="0.52" stop-color="#0CB1EE"/>
<stop offset="1" stop-color="#0668E9"/>
</linearGradient>
<linearGradient id="paint5_linear_26_110" x1="128.501" y1="5.45683" x2="127.478" y2="36.2274" gradientUnits="userSpaceOnUse">
<stop stop-color="#78EF56"/>
<stop offset="0.52" stop-color="#0CB1EE"/>
<stop offset="1" stop-color="#0668E9"/>
</linearGradient>
<linearGradient id="paint6_linear_26_110" x1="118.212" y1="5.11556" x2="117.19" y2="35.8852" gradientUnits="userSpaceOnUse">
<stop stop-color="#78EF56"/>
<stop offset="0.52" stop-color="#0CB1EE"/>
<stop offset="1" stop-color="#0668E9"/>
</linearGradient>
<clipPath id="clip0_26_110">
<rect width="134" height="32" fill="white"/>
</clipPath>
</defs>
</svg>
